<svg width="61" height="61" viewBox="0 0 61 61" fill="none" xmlns="http://www.w3.org/2000/svg">
<path d="M30.3125 56.1875C17.2344 56.1875 3.125 47.9844 3.125 29.9844C3.125 11.9844 17.2344 3.78125 30.3125 3.78125C37.5781 3.78125 44.2812 6.17187 49.25 10.5312C54.6406 15.3125 57.5 22.0625 57.5 29.9844C57.5 37.9062 54.6406 44.6094 49.25 49.3906C44.2812 53.75 37.5312 56.1875 30.3125 56.1875Z" fill="url(#paint0_radial_761_5613)"/>
<path d="M52.7613 14.4062C55.2598 18.4375 56.5629 23.2375 56.5629 28.5766C56.5629 36.4984 53.7035 43.2016 48.3129 47.9828C43.3441 52.3422 36.5941 54.7797 29.3754 54.7797C20.9098 54.7797 12.0316 51.3344 6.79102 44.0266C11.8348 52.3047 21.3223 56.1859 30.3129 56.1859C37.5316 56.1859 44.2816 53.7484 49.2504 49.3891C54.641 44.6078 57.5004 37.9047 57.5004 29.9828C57.5004 24.0109 55.8738 18.7047 52.7613 14.4062Z" fill="#EB8F00"/>
<path d="M39.2422 16.2578C41.0281 16.2578 42.6453 18.9062 42.6453 23.2891C42.6453 27.6719 41.0281 30.3203 39.2422 30.3203C37.4609 30.3203 35.8438 27.6766 35.8438 23.2891C35.8438 18.9016 37.4609 16.2578 39.2422 16.2578Z" fill="#422B0D"/>
<path d="M21.7199 16.2578C19.8215 16.2578 18.0918 18.9062 18.0918 23.2891C18.0918 27.6719 19.8215 30.3203 21.7199 30.3203C23.623 30.3203 25.3527 27.6766 25.3527 23.2891C25.3527 18.9016 23.623 16.2578 21.7199 16.2578Z" fill="#422B0D"/>
<path d="M21.6165 17.9798C21.0493 17.6376 20.3134 17.8251 19.9712 18.3923C19.9618 18.4111 19.9477 18.4298 19.9384 18.4486C19.5071 18.9501 19.5587 19.7095 20.0602 20.1408C20.0743 20.1548 20.0884 20.1642 20.1071 20.1783C20.6696 20.5205 21.4056 20.3376 21.7477 19.7751C21.7618 19.7517 21.7712 19.733 21.7852 19.7095C22.2165 19.2033 22.1602 18.4439 21.654 18.0126C21.6399 17.9986 21.6306 17.9892 21.6165 17.9798Z" fill="#896024"/>
<path d="M39.5043 17.9763C38.9324 17.6388 38.1918 17.8263 37.8543 18.3982C37.8449 18.4123 37.8355 18.431 37.8261 18.4451C37.3996 18.956 37.4699 19.7107 37.9808 20.1373C37.9855 20.1419 37.9949 20.1466 37.9996 20.1513C38.5621 20.4935 39.298 20.3107 39.6402 19.7482C39.6543 19.7248 39.6636 19.706 39.6777 19.6826C40.1043 19.1716 40.034 18.4169 39.523 17.9904C39.5183 17.9857 39.509 17.981 39.5043 17.9763Z" fill="#896024"/>
<path d="M48.3451 34.0696C47.6888 32.8836 46.2638 32.3633 44.9982 32.8415C40.1888 34.243 35.2013 34.9415 30.1904 34.918C25.1795 34.9415 20.1919 34.243 15.3826 32.8415C14.1216 32.3633 12.6966 32.879 12.0404 34.0602C11.4029 35.2368 11.8623 36.6008 12.4013 37.7774C15.4107 44.3868 22.0435 48.343 30.1529 48.3665H30.2279C38.3373 48.3665 44.9701 44.3868 47.9841 37.7774C48.5185 36.5915 48.9826 35.2461 48.3451 34.0696Z" fill="#422B0D"/>
<path d="M37.6951 46.5029C37.5217 46.3435 37.3436 46.1982 37.1654 46.0341C35.2529 44.3513 32.7779 43.4466 30.2279 43.4982C27.6029 43.456 25.0482 44.3279 22.9998 45.9685C22.8217 46.1138 22.6342 46.2544 22.4607 46.4372C22.2873 46.6201 22.1936 46.7513 22.0811 46.906C24.6592 47.9138 27.4061 48.4294 30.1764 48.4154H30.2514C32.9045 48.4154 35.5342 47.9419 38.0186 47.0091C37.9248 46.831 37.817 46.6622 37.6951 46.5029Z" fill="#ED7770"/>
<path d="M44.9986 32.8434C40.1893 34.245 35.2018 34.9434 30.1908 34.92C25.1799 34.9434 20.1924 34.245 15.383 32.8434C14.1221 32.3653 12.6971 32.8809 12.0408 34.0622C11.9471 34.2403 11.8721 34.4278 11.8252 34.62C11.9799 34.6997 12.158 34.7794 12.3689 34.8637C18.0127 37.6903 24.2518 39.1247 30.5611 39.0497C36.6127 39.12 42.5939 37.8028 48.0596 35.2059C48.2799 35.1122 48.4627 35.0231 48.6268 34.9388C48.5893 34.6341 48.4908 34.3341 48.3455 34.0622C47.6893 32.8809 46.2643 32.3606 44.9986 32.8434Z" fill="white"/>
<path d="M48.3638 34.0743C47.6982 32.8883 46.2685 32.3633 44.9935 32.8415C40.1841 34.243 35.1966 34.9415 30.1904 34.918C25.1795 34.9415 20.1919 34.243 15.3826 32.8415C14.1216 32.3633 12.6966 32.879 12.0404 34.0602C11.4029 35.2368 11.8623 36.6008 12.4013 37.7774C12.6404 38.3071 12.9076 38.8274 13.2029 39.329C13.2029 39.329 12.2185 35.6821 13.0716 34.6227C13.3623 34.1727 13.8498 33.8915 14.3841 33.8633C14.6044 33.8633 14.8201 33.9008 15.031 33.9665C19.9248 35.4055 25.0013 36.1321 30.106 36.1227H30.2701C35.3748 36.1321 40.4513 35.4055 45.3451 33.9665C45.556 33.9008 45.7716 33.8633 45.992 33.8633C46.5263 33.8915 47.0185 34.1727 47.3091 34.6227C48.1763 35.6821 47.1779 39.343 47.1779 39.343C47.4685 38.8415 47.7591 38.3258 48.0029 37.7915C48.5373 36.6149 49.0013 35.2555 48.3638 34.0743Z" fill="#EB8F00"/>
<defs>
<radialGradient id="paint0_radial_761_5613" cx="0" cy="0" r="1" gradientUnits="userSpaceOnUse" gradientTransform="translate(30.3125 29.9844) scale(26.6999 26.6999)">
<stop offset="0.5" stop-color="#FDE030"/>
<stop offset="0.92" stop-color="#F7C02B"/>
<stop offset="1" stop-color="#F4A223"/>
</radialGradient>
</defs>
</svg>
