<svg width="61" height="61" viewBox="0 0 61 61" fill="none" xmlns="http://www.w3.org/2000/svg">
<path d="M30.3125 56.1875C17.2344 56.1875 3.125 47.9844 3.125 29.9844C3.125 11.9844 17.2344 3.78125 30.3125 3.78125C37.5781 3.78125 44.2812 6.17187 49.25 10.5312C54.6406 15.3125 57.5 22.0625 57.5 29.9844C57.5 37.9062 54.6406 44.6094 49.25 49.3906C44.2812 53.75 37.5312 56.1875 30.3125 56.1875Z" fill="url(#paint0_radial_761_5596)"/>
<path d="M52.7613 14.4062C55.2598 18.4375 56.5629 23.2375 56.5629 28.5766C56.5629 36.4984 53.7035 43.2016 48.3129 47.9828C43.3441 52.3422 36.5941 54.7797 29.3754 54.7797C20.9098 54.7797 12.0316 51.3344 6.79102 44.0266C11.8348 52.3047 21.3223 56.1859 30.3129 56.1859C37.5316 56.1859 44.2816 53.7484 49.2504 49.3891C54.641 44.6078 57.5004 37.9047 57.5004 29.9828C57.5004 24.0109 55.8738 18.7047 52.7613 14.4062Z" fill="#EB8F00"/>
<path d="M23.4685 27.1656L23.3982 27.0719L23.1967 26.8141L22.9482 26.5469C22.8451 26.4297 22.7232 26.3172 22.606 26.1953C22.4888 26.0734 22.3435 25.9562 22.2123 25.8578C22.0904 25.7641 21.9592 25.675 21.8185 25.6047C21.7248 25.5531 21.6217 25.5109 21.5138 25.4875C21.481 25.4828 21.4482 25.4828 21.4154 25.4875C21.4154 25.4875 21.3873 25.4875 21.3732 25.4875H21.3357C21.392 25.4875 21.2092 25.4875 21.4623 25.4875H21.2045C21.1342 25.4875 21.181 25.4875 21.2045 25.4875H21.242H21.1904C21.0826 25.5109 20.9795 25.5484 20.881 25.6047C20.7451 25.6797 20.6092 25.7641 20.4873 25.8578C20.3513 25.9609 20.2201 26.0734 20.0982 26.1953C19.8498 26.4344 19.6295 26.6641 19.4888 26.8469L19.2451 27.1281L19.1373 27.2547C18.4623 28.0094 17.3232 28.1312 16.5029 27.5406C15.9779 27.175 15.7107 26.5422 15.8138 25.9094C15.8138 25.9094 15.8467 25.7219 15.9357 25.3891C16.0763 24.9156 16.2732 24.4562 16.5217 24.025C16.9201 23.3219 17.4592 22.7078 18.106 22.2203C18.5326 21.8922 19.006 21.6297 19.5123 21.4469C19.6529 21.3906 19.7982 21.3484 19.9435 21.3109C20.0982 21.2641 20.2529 21.2312 20.4123 21.2031L20.6982 21.1609L20.9373 21.1328H21.1951H21.5654H21.8045C21.9638 21.1328 22.1185 21.175 22.2732 21.1984C22.5732 21.25 22.8732 21.3297 23.1592 21.4375C23.6654 21.6203 24.1388 21.8828 24.5654 22.2109C25.2123 22.6984 25.7513 23.3125 26.1498 24.0156C26.2951 24.2594 26.4217 24.5172 26.5248 24.7797C26.6138 24.9906 26.6888 25.2016 26.7498 25.4219C26.7826 25.5344 26.8107 25.6469 26.8248 25.7594V25.8766C26.9654 26.8328 26.2998 27.7234 25.3435 27.8641C25.3201 27.8688 25.2967 27.8688 25.2732 27.8734C24.5888 27.9719 23.9045 27.7 23.4685 27.1656Z" fill="#422B0D"/>
<path d="M41.9654 27.1656L41.8904 27.0719L41.6888 26.8141L41.4404 26.5469C41.3373 26.4297 41.2154 26.3172 41.0982 26.1953C40.981 26.0734 40.8357 25.9562 40.7045 25.8578C40.5826 25.7641 40.4513 25.675 40.3107 25.6047C40.217 25.5531 40.1138 25.5109 40.006 25.4875C39.9732 25.4828 39.9404 25.4828 39.9076 25.4875C39.9076 25.4875 39.8795 25.4875 39.8654 25.4875H39.8279C39.8842 25.4875 39.7013 25.4875 39.9545 25.4875H39.6967C39.6263 25.4875 39.6732 25.4875 39.6967 25.4875H39.7342H39.6826C39.5748 25.5109 39.4717 25.5484 39.3732 25.6047C39.2373 25.675 39.106 25.7641 38.9842 25.8578C38.8435 25.9609 38.7123 26.0734 38.5904 26.1953C38.342 26.4344 38.1217 26.6641 37.981 26.8469L37.7373 27.1281L37.6342 27.2547C36.9545 28.0094 35.8201 28.1312 34.9951 27.5406C34.4701 27.175 34.2029 26.5422 34.306 25.9094C34.306 25.9094 34.3388 25.7219 34.4326 25.3891C34.5732 24.9109 34.7654 24.4516 35.0185 24.025C35.417 23.3219 35.9513 22.7078 36.5982 22.2203C37.0248 21.8922 37.4982 21.6297 38.0045 21.4469C38.1451 21.3906 38.2904 21.3484 38.4357 21.3109C38.5904 21.2641 38.7451 21.2312 38.9045 21.2031L39.1951 21.1609L39.4295 21.1328H39.6873H40.0576H40.2967C40.456 21.1328 40.6107 21.175 40.7654 21.1984C41.0701 21.25 41.3654 21.3297 41.6513 21.4375C42.1576 21.6203 42.631 21.8828 43.0576 22.2109C43.7045 22.6984 44.2435 23.3125 44.642 24.0156C44.7873 24.2594 44.9138 24.5172 45.017 24.7797C45.106 24.9859 45.181 25.1969 45.242 25.4125C45.2748 25.525 45.3029 25.6375 45.317 25.75V25.8672C45.467 26.8234 44.8107 27.7187 43.8545 27.8687C43.8404 27.8687 43.8263 27.8734 43.8123 27.8734C43.1138 27.9906 42.406 27.7187 41.9654 27.1656Z" fill="#422B0D"/>
<path d="M48.3451 34.0696C47.6888 32.8836 46.2638 32.3633 44.9982 32.8415C40.1888 34.243 35.2013 34.9415 30.1904 34.918C25.1795 34.9415 20.1919 34.243 15.3826 32.8415C14.1216 32.3633 12.6966 32.879 12.0404 34.0602C11.4029 35.2368 11.8623 36.6008 12.4013 37.7774C15.4107 44.3868 22.0435 48.343 30.1529 48.3665H30.2279C38.3373 48.3665 44.9701 44.3868 47.9841 37.7774C48.5185 36.5915 48.9826 35.2461 48.3451 34.0696Z" fill="#422B0D"/>
<path d="M37.6951 46.5029C37.5217 46.3435 37.3436 46.1982 37.1654 46.0341C35.2529 44.3513 32.7779 43.4466 30.2279 43.4982C27.6029 43.456 25.0482 44.3279 22.9998 45.9685C22.8217 46.1138 22.6342 46.2544 22.4607 46.4372C22.2873 46.6201 22.1936 46.7513 22.0811 46.906C24.6592 47.9138 27.4061 48.4294 30.1764 48.4154H30.2514C32.9045 48.4154 35.5342 47.9419 38.0186 47.0091C37.9248 46.831 37.817 46.6622 37.6951 46.5029Z" fill="#ED7770"/>
<path d="M44.9986 32.8434C40.1893 34.245 35.2018 34.9434 30.1908 34.92C25.1799 34.9434 20.1924 34.245 15.383 32.8434C14.1221 32.3653 12.6971 32.8809 12.0408 34.0622C11.9471 34.2403 11.8721 34.4278 11.8252 34.62C11.9799 34.6997 12.158 34.7794 12.3689 34.8637C18.0127 37.6903 24.2518 39.1247 30.5611 39.0497C36.6127 39.12 42.5939 37.8028 48.0596 35.2059C48.2799 35.1122 48.4627 35.0231 48.6268 34.9388C48.5893 34.6341 48.4908 34.3341 48.3455 34.0622C47.6893 32.8809 46.2643 32.3606 44.9986 32.8434Z" fill="white"/>
<path d="M48.3638 34.0743C47.6982 32.8883 46.2685 32.3633 44.9935 32.8415C40.1841 34.243 35.1966 34.9415 30.1904 34.918C25.1795 34.9415 20.1919 34.243 15.3826 32.8415C14.1216 32.3633 12.6966 32.879 12.0404 34.0602C11.4029 35.2368 11.8623 36.6008 12.4013 37.7774C12.6404 38.3071 12.9076 38.8274 13.2029 39.329C13.2029 39.329 12.2185 35.6821 13.0716 34.6227C13.3623 34.1727 13.8498 33.8915 14.3841 33.8633C14.6044 33.8633 14.8201 33.9008 15.031 33.9665C19.9248 35.4055 25.0013 36.1321 30.106 36.1227H30.2701C35.3748 36.1321 40.4513 35.4055 45.3451 33.9665C45.556 33.9008 45.7716 33.8633 45.992 33.8633C46.5263 33.8915 47.0185 34.1727 47.3091 34.6227C48.1763 35.6821 47.1779 39.343 47.1779 39.343C47.4685 38.8415 47.7591 38.3258 48.0029 37.7915C48.5373 36.6149 49.0013 35.2555 48.3638 34.0743Z" fill="#EB8F00"/>
<defs>
<radialGradient id="paint0_radial_761_5596" cx="0" cy="0" r="1" gradientUnits="userSpaceOnUse" gradientTransform="translate(30.3125 29.9844) scale(26.6999 26.6999)">
<stop offset="0.5" stop-color="#FDE030"/>
<stop offset="0.92" stop-color="#F7C02B"/>
<stop offset="1" stop-color="#F4A223"/>
</radialGradient>
</defs>
</svg>
