<svg width="61" height="60" viewBox="0 0 61 60" fill="none" xmlns="http://www.w3.org/2000/svg">
<path d="M30.3125 55.6875C17.2344 55.6875 3.125 47.4844 3.125 29.4844C3.125 11.4844 17.2344 3.28125 30.3125 3.28125C37.5781 3.28125 44.2812 5.67187 49.25 10.0312C54.6406 14.8125 57.5 21.5625 57.5 29.4844C57.5 37.4062 54.6406 44.1094 49.25 48.8906C44.2812 53.25 37.5312 55.6875 30.3125 55.6875Z" fill="url(#paint0_radial_761_5634)"/>
<path d="M52.7613 13.9062C55.2598 17.9375 56.5629 22.7375 56.5629 28.0766C56.5629 35.9984 53.7035 42.7016 48.3129 47.4828C43.3441 51.8422 36.5941 54.2797 29.3754 54.2797C20.9098 54.2797 12.0316 50.8344 6.79102 43.5266C11.8348 51.8047 21.3223 55.6859 30.3129 55.6859C37.5316 55.6859 44.2816 53.2484 49.2504 48.8891C54.641 44.1078 57.5004 37.4047 57.5004 29.4828C57.5004 23.5109 55.8738 18.2047 52.7613 13.9062Z" fill="#EB8F00"/>
<path d="M30.6871 39.0482C29.009 39.0482 27.3449 38.767 25.7652 38.2045C23.8199 37.5342 21.7059 38.5701 21.0355 40.5107C20.6559 41.6076 20.8105 42.817 21.4527 43.7826C23.4684 46.8764 26.6559 48.5639 30.6871 48.5639C34.7184 48.5639 37.9059 46.8764 39.9215 43.7826C41.0605 42.0717 40.5918 39.7607 38.8809 38.6217C37.9152 37.9795 36.7059 37.8248 35.609 38.2045C34.0293 38.767 32.3652 39.0482 30.6871 39.0482Z" fill="#422B0D"/>
<path opacity="0.8" d="M16.5312 41.8125C21.0617 41.8125 24.7344 38.3497 24.7344 34.0781C24.7344 29.8065 21.0617 26.3438 16.5312 26.3438C12.0008 26.3438 8.32812 29.8065 8.32812 34.0781C8.32812 38.3497 12.0008 41.8125 16.5312 41.8125Z" fill="url(#paint1_radial_761_5634)"/>
<path opacity="0.8" d="M44.8438 41.8125C49.3742 41.8125 53.0469 38.3497 53.0469 34.0781C53.0469 29.8065 49.3742 26.3438 44.8438 26.3438C40.3133 26.3438 36.6406 29.8065 36.6406 34.0781C36.6406 38.3497 40.3133 41.8125 44.8438 41.8125Z" fill="url(#paint2_radial_761_5634)"/>
<path d="M50.9327 16.1113C47.0842 15.0285 44.2577 18.1738 44.2577 18.1738C44.2577 18.1738 43.9295 14.6066 40.6389 13.4863C36.692 12.1316 32.5249 14.2879 32.2764 19.8801C31.9952 26.2504 40.4233 34.6129 40.4233 34.6129C40.4233 34.6129 50.8858 31.8004 54.3124 25.8379C57.1014 20.9863 53.8436 16.9269 50.9327 16.1113Z" fill="#F44336"/>
<path d="M50.9332 16.1119C50.4598 15.9854 49.9723 15.9291 49.4848 15.9385C50.8629 16.8619 51.9551 18.151 52.6348 19.6604C53.2957 21.2494 53.4691 23.3026 52.2129 25.7541C49.4895 31.0838 41.1035 34.3838 40.4941 34.6135C41.2582 34.3979 51.0363 31.5854 54.3316 25.8526C57.102 20.9869 53.8441 16.9276 50.9332 16.1119Z" fill="#C62828"/>
<path d="M44.2529 18.75C44.2248 18.2625 44.1498 17.775 44.0373 17.2969C43.7654 15.9188 42.9123 14.7234 41.6936 14.0156C40.8592 13.5281 39.9357 13.2188 38.9795 13.1016C38.9795 13.1016 40.3857 13.5281 41.3889 15.4734C41.8998 16.4953 42.2045 17.6109 42.2795 18.75C42.2748 19.1672 42.3498 19.575 42.4998 19.9641C42.6686 20.3531 43.0811 20.5828 43.5029 20.5172C44.1451 20.3531 44.2857 19.5516 44.2529 18.75Z" fill="#C62828"/>
<path d="M35.1404 16.5133C36.017 15.4258 37.456 14.3898 38.8342 15.3461C39.5654 15.857 39.5748 17.3054 38.6795 17.957C37.1701 19.0633 37.0998 19.7898 36.931 20.3992C36.7248 21.1258 36.5935 21.9929 35.9326 22.3586C35.2717 22.7242 34.6904 22.3586 34.3435 21.3133C33.7529 19.682 34.0529 17.8633 35.1404 16.5133Z" fill="#FF847A"/>
<path d="M19.587 13.3923C15.7855 14.6251 15.1761 18.811 15.1761 18.811C15.1761 18.811 12.9261 15.9985 9.55109 16.9079C5.52453 17.9673 3.25109 22.0735 6.12453 26.8595C9.45266 32.3439 21.0964 34.6173 21.0964 34.6173C21.0964 34.6173 28.2448 26.4798 27.7948 19.6173C27.4245 14.0298 22.4605 12.4595 19.587 13.3923Z" fill="#F44336"/>
<path d="M19.5877 13.3923C19.1236 13.5423 18.6783 13.7579 18.2705 14.0298C19.9299 14.0345 21.5518 14.5033 22.958 15.3845C24.3924 16.322 25.6721 17.9533 25.9908 20.6954C26.6799 26.6439 21.5236 34.0361 21.1252 34.5751C21.6455 33.9751 28.2221 26.2126 27.7908 19.6126C27.4252 14.0298 22.4611 12.4595 19.5877 13.3923Z" fill="#C62828"/>
<path d="M15.5 19.3038C15.2094 18.9054 14.8812 18.5398 14.5156 18.2116C13.5312 17.2085 12.1672 16.6741 10.7656 16.7491C9.80469 16.8054 8.8625 17.0538 8 17.4898C8 17.4898 9.40625 17.0632 11.3187 18.132C12.3172 18.7085 13.1844 19.482 13.8781 20.4007C14.1031 20.7523 14.3938 21.0523 14.7359 21.2913C15.0922 21.521 15.5609 21.4788 15.875 21.1929C16.2922 20.6866 15.9688 19.946 15.5 19.3038Z" fill="#C62828"/>
<path d="M6.68766 22.5018C6.70641 22.1081 6.77672 21.719 6.89391 21.344C7.0861 20.5565 7.64391 19.905 8.38922 19.5909C9.10641 19.3659 10.1002 19.5253 10.4845 20.2425C10.8267 20.88 10.5783 21.6487 10.3908 22.3518C10.222 23.1581 10.1283 23.9831 10.1095 24.8081C10.1142 25.4831 9.57516 26.0315 8.90016 26.0409C8.26266 26.0409 7.76579 25.4878 7.40954 24.9581C6.91266 24.2362 6.65954 23.3784 6.68766 22.5018Z" fill="#FF847A"/>
<defs>
<radialGradient id="paint0_radial_761_5634" cx="0" cy="0" r="1" gradientUnits="userSpaceOnUse" gradientTransform="translate(30.3125 29.4844) scale(26.6999 26.6999)">
<stop offset="0.5" stop-color="#FDE030"/>
<stop offset="0.92" stop-color="#F7C02B"/>
<stop offset="1" stop-color="#F4A223"/>
</radialGradient>
<radialGradient id="paint1_radial_761_5634" cx="0" cy="0" r="1" gradientUnits="userSpaceOnUse" gradientTransform="translate(16.5313 30.5206) scale(8.93994 8.0277)">
<stop stop-color="#ED7770"/>
<stop offset="0.9" stop-color="#ED7770" stop-opacity="0"/>
</radialGradient>
<radialGradient id="paint2_radial_761_5634" cx="0" cy="0" r="1" gradientUnits="userSpaceOnUse" gradientTransform="translate(58.2125 1184.81) scale(9.12188 9.12187)">
<stop stop-color="#ED7770"/>
<stop offset="0.9" stop-color="#ED7770" stop-opacity="0"/>
</radialGradient>
</defs>
</svg>
