<svg width="61" height="61" viewBox="0 0 61 61" fill="none" xmlns="http://www.w3.org/2000/svg">
<path d="M30.3125 56.1875C17.2344 56.1875 3.125 47.9844 3.125 29.9844C3.125 11.9844 17.2344 3.78125 30.3125 3.78125C37.5781 3.78125 44.2812 6.17187 49.25 10.5312C54.6406 15.3125 57.5 22.0625 57.5 29.9844C57.5 37.9062 54.6406 44.6094 49.25 49.3906C44.2812 53.75 37.5312 56.1875 30.3125 56.1875Z" fill="url(#paint0_radial_761_5579)"/>
<path d="M52.7613 14.4062C55.2598 18.4375 56.5629 23.2375 56.5629 28.5766C56.5629 36.4984 53.7035 43.2016 48.3129 47.9828C43.3441 52.3422 36.5941 54.7797 29.3754 54.7797C20.9098 54.7797 12.0316 51.3344 6.79102 44.0266C11.8348 52.3047 21.3223 56.1859 30.3129 56.1859C37.5316 56.1859 44.2816 53.7484 49.2504 49.3891C54.641 44.6078 57.5004 37.9047 57.5004 29.9828C57.5004 24.0109 55.8738 18.7047 52.7613 14.4062Z" fill="#EB8F00"/>
<path d="M16.611 45.8458C19.611 40.638 25.9298 38.4958 30.5001 38.4958C35.0704 38.4958 41.3892 40.638 44.3892 45.8458C44.811 46.5865 46.0157 46.263 45.8798 45.4193C44.7267 38.388 36.9735 34.4271 30.5001 34.1693C23.6563 33.9208 16.4704 38.7818 15.1204 45.4193C14.9563 46.249 16.1892 46.5865 16.611 45.8458Z" fill="#422B0D"/>
<path d="M21.125 19.6914C19.1609 19.6914 17.375 21.3508 17.375 24.107C17.375 26.8633 19.1609 28.518 21.125 28.518C23.0938 28.518 24.875 26.8586 24.875 24.107C24.875 21.3555 23.1125 19.6914 21.125 19.6914Z" fill="#422B0D"/>
<path d="M20.9613 21.5337C20.2957 21.215 19.4941 21.4962 19.1707 22.1618C18.9222 22.6821 19.0347 23.3056 19.4519 23.7087C20.1176 24.0275 20.9191 23.7462 21.2426 23.0806C21.491 22.5603 21.3785 21.9368 20.9613 21.5337Z" fill="#896024"/>
<path d="M39.125 19.6914C37.1609 19.6914 35.375 21.3508 35.375 24.107C35.375 26.8633 37.1609 28.518 39.125 28.518C41.0891 28.518 42.875 26.8586 42.875 24.107C42.875 21.3555 41.0891 19.6914 39.125 19.6914Z" fill="#422B0D"/>
<path d="M38.9379 21.5337C38.2722 21.215 37.4707 21.4962 37.1472 22.1618C36.8988 22.6821 37.0113 23.3056 37.4285 23.7087C38.0941 24.0275 38.8957 23.7462 39.2191 23.0806C39.4676 22.5603 39.3551 21.9368 38.9379 21.5337Z" fill="#896024"/>
<defs>
<radialGradient id="paint0_radial_761_5579" cx="0" cy="0" r="1" gradientUnits="userSpaceOnUse" gradientTransform="translate(30.3125 29.9844) scale(26.6999 26.6999)">
<stop offset="0.5" stop-color="#FDE030"/>
<stop offset="0.92" stop-color="#F7C02B"/>
<stop offset="1" stop-color="#F4A223"/>
</radialGradient>
</defs>
</svg>
