<svg width="41" height="36" viewBox="0 0 41 36" fill="none" xmlns="http://www.w3.org/2000/svg">
<path opacity="0.4" d="M36.302 13.7251C35.4649 12.5551 34.5082 11.5051 33.5174 10.5601L27.077 16.2151C27.282 16.7701 27.4016 17.3701 27.4016 18.0001C27.4016 21.3601 24.3095 24.0601 20.4999 24.0601C19.7824 24.0601 19.0991 23.9551 18.467 23.7751L12.5562 28.9651C15.0503 30.1951 17.7495 30.8401 20.4999 30.8401C23.5407 30.8401 26.4962 30.0601 29.1953 28.6051C31.8945 27.1351 34.3203 24.9901 36.302 22.2601C38.0103 19.9201 38.0103 16.0801 36.302 13.7251Z" fill="black"/>
<path d="M23.9509 14.97L17.0493 21.03C16.178 20.25 15.6143 19.17 15.6143 18C15.6143 15.645 17.8009 13.71 20.5001 13.71C21.8326 13.71 23.0626 14.205 23.9509 14.97Z" fill="black"/>
<path opacity="0.4" d="M31.1772 8.62502L25.3859 13.71C24.1388 12.6 22.4134 11.94 20.5001 11.94C16.6734 11.94 13.5984 14.655 13.5984 18C13.5984 19.68 14.3672 21.195 15.6142 22.29L9.84008 27.375H9.823C7.92675 26.025 6.18425 24.3 4.698 22.26C2.98966 19.905 2.98966 16.08 4.698 13.725C6.67966 10.995 9.1055 8.85002 11.8047 7.38002C14.5038 5.94002 17.4592 5.14502 20.5001 5.14502C24.3097 5.14502 27.9997 6.37502 31.1772 8.62502Z" fill="black"/>
<path d="M25.3857 18.0001C25.3857 20.3551 23.1991 22.2901 20.4999 22.2901C20.3974 22.2901 20.312 22.2901 20.2095 22.2601L25.3516 17.7451C25.3857 17.8351 25.3857 17.9101 25.3857 18.0001Z" fill="black"/>
<path d="M37.1905 3.34507C36.678 2.89507 35.8409 2.89507 35.3284 3.34507L3.80967 31.0351C3.29717 31.4851 3.29717 32.2201 3.80967 32.6701C4.06592 32.8801 4.3905 33.0001 4.73217 33.0001C5.07383 33.0001 5.39842 32.8801 5.65467 32.6551L37.1905 4.96507C37.7201 4.51507 37.7201 3.79507 37.1905 3.34507Z" fill="black"/>
</svg>
