<svg width="147" height="156" viewBox="0 0 147 156" fill="none" xmlns="http://www.w3.org/2000/svg">
<path d="M0.339355 42.8215V112.872C0.339355 115.714 1.9804 118.249 4.52401 119.708L69.2631 154.733C71.8888 156.116 75.0888 156.116 77.6324 154.733L142.372 119.708C144.997 118.326 146.556 115.714 146.556 112.872V42.8215C146.556 39.9795 144.915 37.4448 142.372 35.9854L77.7145 1.03693C75.0888 -0.345644 71.8888 -0.345644 69.3452 1.03693L4.52401 35.9854C1.9804 37.4448 0.339355 40.0563 0.339355 42.8215Z" fill="black"/>
<path d="M102.166 104.884V69.0907H89.4479V104.884H85.1812V77.079H72.4632V104.884H68.1964V84.9904H55.4784V104.884H51.2117V90.9815H38.4936V104.884H34.2269V108.878H106.433V104.884H102.166ZM42.7603 104.884V94.9756H47.027V104.884H42.7603ZM59.7451 104.884V88.9845H64.0118V104.884H59.7451ZM76.7299 104.884V80.9963H80.9966V104.884H76.7299ZM93.7146 104.884V73.008H97.9813V104.807H93.7146V104.884Z" fill="white"/>
<path d="M44.8116 78.9991C49.6527 78.9991 52.6886 74.1601 50.3911 70.1659L59.4169 60.6415C60.1553 60.9488 60.9759 61.1024 61.7964 61.1024C63.2733 61.1024 64.8323 60.6415 65.981 59.643L72.5452 63.0994C72.217 64.9429 72.7914 66.9399 74.3503 68.3225C75.5811 69.4747 77.2222 70.0891 78.8632 70.0891C80.5042 70.0891 82.1453 69.4747 83.3761 68.3225C85.2633 66.5559 85.7556 63.8675 84.6889 61.7169L92.8941 54.4967C93.7967 54.9576 94.7813 55.188 95.848 55.188C97.489 55.188 99.1301 54.5736 100.361 53.4214C102.822 51.1171 102.822 47.2766 100.361 44.9723C97.8993 42.668 93.7967 42.668 91.3351 44.9723C89.4479 46.7389 88.9556 49.4273 90.0223 51.578L81.8171 58.7981C79.5196 57.7228 76.7299 57.9532 74.6786 59.643L68.1144 56.1866C68.4426 54.3431 67.8682 52.3461 66.3092 50.9635C63.8477 48.6592 59.7451 48.6592 57.2835 50.9635C55.2322 52.8837 54.904 55.8025 56.2168 58.03L47.2732 67.5544C44.9757 66.7095 42.268 67.0936 40.3808 68.8602C37.9192 71.1645 37.9192 75.005 40.3808 77.3093C41.6116 78.3846 43.2526 78.9991 44.8116 78.9991ZM94.289 47.8143C94.6992 47.4302 95.1916 47.1998 95.7659 47.1998C96.3403 47.1998 96.8326 47.4302 97.2429 47.8143C97.6531 48.1983 97.8993 48.6592 97.8993 49.1969C97.8993 49.7345 97.6531 50.1954 97.2429 50.5794C96.8326 50.9635 96.3403 51.1939 95.7659 51.1939C95.1916 51.1939 94.6992 50.9635 94.289 50.5794C93.8787 50.1954 93.6326 49.7345 93.6326 49.1969C93.7146 48.6592 93.8787 48.1215 94.289 47.8143ZM77.3042 62.7154C77.7145 62.3313 78.2068 62.1009 78.7812 62.1009C79.3555 62.1009 79.8478 62.3313 80.2581 62.7154C80.6684 63.0994 80.9145 63.5603 80.9145 64.098C80.9145 64.6356 80.6684 65.0965 80.2581 65.4805C79.8478 65.8646 79.3555 66.095 78.7812 66.095C78.2068 66.095 77.7145 65.8646 77.3042 65.4805C76.894 65.0965 76.6478 64.6356 76.6478 64.098C76.7299 63.5603 76.894 63.0994 77.3042 62.7154ZM60.3194 53.7286C60.7297 53.3446 61.222 53.1142 61.7964 53.1142C62.3707 53.1142 62.863 53.3446 63.2733 53.7286C63.6836 54.1127 63.9297 54.5736 63.9297 55.1112C63.9297 55.6489 63.6836 56.1097 63.2733 56.4938C62.863 56.8778 62.3707 57.1083 61.7964 57.1083C61.222 57.1083 60.7297 56.8778 60.3194 56.4938C59.9092 56.1097 59.663 55.6489 59.663 55.1112C59.7451 54.6504 59.9092 54.1127 60.3194 53.7286ZM43.3347 71.6253C43.7449 71.2413 44.2372 71.0109 44.8116 71.0109C45.386 71.0109 45.8783 71.2413 46.2885 71.6253C46.6988 72.0094 46.9449 72.4702 46.9449 73.0079C46.9449 73.5456 46.6988 74.0064 46.2885 74.3905C45.8783 74.7745 45.386 75.005 44.8116 75.005C44.2372 75.005 43.7449 74.7745 43.3347 74.3905C42.9244 74.0064 42.6782 73.5456 42.6782 73.0079C42.7603 72.547 42.9244 72.0094 43.3347 71.6253Z" fill="white"/>
</svg>
