<svg width="145" height="156" viewBox="0 0 145 156" fill="none" xmlns="http://www.w3.org/2000/svg">
<path d="M0.258789 42.8215V112.872C0.258789 115.714 1.87399 118.249 4.37755 119.708L68.0971 154.733C70.6815 156.116 73.8311 156.116 76.3346 154.733L140.054 119.708C142.639 118.326 144.173 115.714 144.173 112.872V42.8215C144.173 39.9795 142.558 37.4448 140.054 35.9854L76.4154 1.03693C73.8311 -0.345644 70.6814 -0.345644 68.1779 1.03693L4.37755 35.9854C1.87399 37.4448 0.258789 40.0563 0.258789 42.8215Z" fill="black"/>
<path d="M91.1935 78.7686H97.8158C98.7041 81.0729 100.965 82.7627 103.711 82.7627C107.184 82.7627 110.011 80.0744 110.011 76.7716C110.011 73.4687 107.184 70.7804 103.711 70.7804C100.965 70.7804 98.6234 72.4702 97.8158 74.7745H91.1935V50.8867H97.8158C98.7041 53.191 100.965 54.8808 103.711 54.8808C107.184 54.8808 110.011 52.1924 110.011 48.8896C110.011 45.5868 107.184 42.8984 103.711 42.8984C100.965 42.8984 98.6234 44.5883 97.8158 46.8925H86.994V74.6977H80.8562V68.8601C80.8562 63.3298 76.0914 58.7981 70.2766 58.7981C71.5688 57.1083 72.3764 55.0344 72.3764 52.8069C72.3764 47.3534 67.6923 42.8984 61.9584 42.8984C56.2244 42.8984 51.5403 47.3534 51.5403 52.8069C51.5403 55.0344 52.3479 57.1083 53.6401 58.7981C47.8254 58.7981 43.0605 63.3298 43.0605 68.8601V86.6032H51.4596V110.568H72.6187V86.68H81.0177V78.6918H87.1555V106.497H97.9773C98.8657 108.801 101.127 110.491 103.873 110.491C107.345 110.491 110.172 107.803 110.172 104.5C110.172 101.197 107.345 98.5087 103.873 98.5087C101.127 98.5087 98.7849 100.199 97.9773 102.503H91.355V78.7686H91.1935ZM103.711 74.7745C104.842 74.7745 105.811 75.6962 105.811 76.7716C105.811 77.8469 104.842 78.7686 103.711 78.7686C102.581 78.7686 101.611 77.8469 101.611 76.7716C101.611 75.6962 102.581 74.7745 103.711 74.7745ZM103.711 46.9694C104.842 46.9694 105.811 47.8911 105.811 48.9664C105.811 50.0417 104.842 50.9635 103.711 50.9635C102.581 50.9635 101.611 50.0417 101.611 48.9664C101.611 47.8143 102.581 46.9694 103.711 46.9694ZM55.6591 52.8837C55.6591 49.5809 58.4857 46.8925 61.9584 46.8925C65.4311 46.8925 68.2576 49.5809 68.2576 52.8837C68.2576 56.1865 65.4311 58.8749 61.9584 58.8749C58.4049 58.8749 55.6591 56.1865 55.6591 52.8837ZM76.6567 82.6859H72.4572V72.0862H68.2576V106.574H63.9774V86.68H59.7779V106.574H55.4976V86.68V72.0862H51.2981V82.6859H47.0985V68.937C47.0985 65.5573 50.0059 62.869 53.4786 62.869H70.1959C73.7493 62.869 76.5759 65.6341 76.5759 68.937V82.6859H76.6567ZM103.711 102.58C104.842 102.58 105.811 103.501 105.811 104.577C105.811 105.652 104.842 106.574 103.711 106.574C102.581 106.574 101.611 105.652 101.611 104.577C101.611 103.501 102.581 102.58 103.711 102.58Z" fill="white"/>
</svg>
