<?xml version="1.0" standalone="no"?>
<!DOCTYPE svg PUBLIC "-//W3C//DTD SVG 20010904//EN"
 "http://www.w3.org/TR/2001/REC-SVG-20010904/DTD/svg10.dtd">
<svg version="1.0" xmlns="http://www.w3.org/2000/svg"
 width="512.000000pt" height="512.000000pt" viewBox="0 0 512.000000 512.000000"
 preserveAspectRatio="xMidYMid meet">

<g transform="translate(0.000000,512.000000) scale(0.100000,-0.100000)"
fill="#ddd" stroke="none">
<path d="M2777 5109 c-111 -13 -296 -63 -407 -110 -482 -206 -819 -621 -931
-1149 -33 -152 -33 -448 0 -600 138 -650 620 -1127 1256 -1246 149 -28 432
-26 575 5 207 44 399 126 575 244 118 80 322 284 402 402 370 548 371 1230 2
1785 -84 127 -282 325 -409 409 -323 215 -683 303 -1063 260z m251 -569 c39
-24 71 -89 72 -142 0 -30 4 -38 19 -38 32 0 178 -79 205 -111 92 -109 -14
-275 -152 -237 -20 6 -48 18 -62 28 -44 30 -99 43 -168 37 -68 -5 -100 -22
-136 -70 -27 -36 -28 -117 -2 -145 26 -29 151 -91 292 -146 139 -54 196 -88
256 -155 159 -176 155 -445 -7 -645 -49 -60 -146 -130 -205 -147 -37 -11 -37
-12 -43 -74 -8 -102 -59 -155 -149 -155 -84 0 -148 66 -148 151 l0 46 -60 12
c-72 14 -208 81 -249 122 -64 64 -61 163 6 218 62 51 99 50 207 -4 81 -40 104
-47 173 -52 56 -4 95 -1 134 10 158 46 214 259 91 343 -18 12 -67 34 -109 50
-206 73 -384 176 -436 252 -148 212 -62 525 176 642 l67 33 0 46 c0 118 129
191 228 131z"/>
<path d="M1435 1944 c-127 -20 -241 -50 -305 -81 -66 -32 -165 -129 -202 -199
-59 -109 -58 -101 -58 -916 l0 -748 1353 2 1352 3 81 27 c44 15 109 46 145 69
45 29 234 210 637 612 315 315 580 584 588 599 18 35 18 101 -1 138 -23 45
-131 129 -220 171 -113 54 -191 72 -315 72 -130 0 -204 -18 -330 -79 l-95 -47
-385 -382 c-326 -324 -394 -386 -445 -411 l-60 -29 -525 -3 c-510 -2 -526 -2
-558 18 -93 58 -96 188 -5 250 l36 25 526 5 526 5 67 33 c134 66 205 179 215
342 5 99 -10 140 -66 177 -33 22 -40 23 -295 23 -405 0 -436 6 -784 164 -232
105 -329 139 -452 161 -104 18 -304 18 -425 -1z"/>
<path d="M195 1471 c-40 -10 -66 -27 -90 -59 -19 -26 -20 -45 -23 -668 l-2
-640 22 -35 c42 -62 70 -69 281 -69 l187 0 -2 738 -3 737 -170 2 c-93 0 -183
-2 -200 -6z"/>
</g>
</svg>
