<svg width="22" height="22" viewBox="0 0 22 22" fill="none" xmlns="http://www.w3.org/2000/svg">
<path d="M1 15.055C1 12.2416 1 10.8339 1.879 9.9604C2.757 9.08594 4.172 9.08594 7 9.08594H15C17.828 9.08594 19.243 9.08594 20.121 9.9604C21 10.8339 21 12.2416 21 15.055C21 17.8684 21 19.2761 20.121 20.1496C19.243 21.024 17.828 21.024 15 21.024H7C4.172 21.024 2.757 21.024 1.879 20.1496C1 19.2761 1 17.8684 1 15.055Z" stroke="black" stroke-width="1.5"/>
<path d="M5 9.08567V7.09599C5 5.51291 5.63214 3.99466 6.75736 2.87524C7.88258 1.75583 9.4087 1.12695 11 1.12695C12.5913 1.12695 14.1174 1.75583 15.2426 2.87524C16.3679 3.99466 17 5.51291 17 7.09599V9.08567" stroke="black" stroke-width="1.5" stroke-linecap="round"/>
<path d="M7 15.0547H7.009M10.991 15.0547H11M14.991 15.0547H15" stroke="black" stroke-width="2" stroke-linecap="round" stroke-linejoin="round"/>
</svg>
