<svg width="50" height="50" viewBox="0 0 50 50" fill="none" xmlns="http://www.w3.org/2000/svg">
<path opacity="0.4" d="M4.16675 27.0209V14.5626C4.16675 8.81258 8.83341 4.16675 14.5834 4.16675H35.4167C41.1667 4.16675 45.8334 8.81258 45.8334 14.5626V29.1042C45.8334 34.8334 41.1667 39.4792 35.4167 39.4792H32.2917C31.6459 39.4792 31.0209 39.7917 30.6251 40.3126L27.5001 44.4584C26.1251 46.2917 23.8751 46.2917 22.5001 44.4584L19.3751 40.3126C19.0417 39.8542 18.2917 39.4792 17.7084 39.4792H14.5834C8.83341 39.4792 4.16675 34.8334 4.16675 29.1042V27.0209Z" fill="black"/>
<path d="M25.0001 24.9999C23.8334 24.9999 22.9167 24.0624 22.9167 22.9166C22.9167 21.7708 23.8542 20.8333 25.0001 20.8333C26.1459 20.8333 27.0834 21.7708 27.0834 22.9166C27.0834 24.0624 26.1667 24.9999 25.0001 24.9999Z" fill="black"/>
<path d="M33.3333 24.9999C32.1667 24.9999 31.25 24.0624 31.25 22.9166C31.25 21.7708 32.1875 20.8333 33.3333 20.8333C34.4792 20.8333 35.4167 21.7708 35.4167 22.9166C35.4167 24.0624 34.5 24.9999 33.3333 24.9999Z" fill="black"/>
<path d="M16.6666 24.9999C15.4999 24.9999 14.5833 24.0624 14.5833 22.9166C14.5833 21.7708 15.5208 20.8333 16.6666 20.8333C17.8124 20.8333 18.7499 21.7708 18.7499 22.9166C18.7499 24.0624 17.8333 24.9999 16.6666 24.9999Z" fill="black"/>
</svg>
