<svg width="50" height="50" viewBox="0 0 50 50" fill="none" xmlns="http://www.w3.org/2000/svg">
<path d="M31.25 45.8334C30.3958 45.8334 29.6875 45.1251 29.6875 44.2709V5.72925C29.6875 4.87508 30.3958 4.16675 31.25 4.16675C32.1042 4.16675 32.8125 4.87508 32.8125 5.72925V44.2709C32.8125 45.1251 32.1042 45.8334 31.25 45.8334Z" fill="#292D32"/>
<path opacity="0.4" d="M13.5416 41.6666H26.0416V8.33325H13.5416C8.93742 8.33325 5.20825 12.0624 5.20825 16.6666V33.3333C5.20825 37.9374 8.93742 41.6666 13.5416 41.6666Z" fill="#292D32"/>
<path opacity="0.4" d="M37.5 41.6666H31.25V8.33325H37.5C42.1042 8.33325 45.8333 12.0624 45.8333 16.6666V33.3333C45.8333 37.9374 42.1042 41.6666 37.5 41.6666Z" fill="#292D32"/>
<path d="M11.9791 27.0833C11.7083 27.0833 11.4374 27.0208 11.1874 26.9166C10.9374 26.8125 10.7083 26.6666 10.4999 26.4791C10.3124 26.2708 10.1666 26.0416 10.0416 25.7916C9.93742 25.5416 9.89575 25.2708 9.89575 25C9.89575 24.4583 10.1249 23.9166 10.4999 23.5208C10.6041 23.4375 10.7083 23.3541 10.8124 23.2708C10.9374 23.1875 11.0624 23.125 11.1874 23.0833C11.3124 23.0208 11.4374 22.9791 11.5624 22.9583C12.2708 22.8125 12.9791 23.0416 13.4583 23.5208C13.8333 23.9166 14.0624 24.4583 14.0624 25C14.0624 25.2708 13.9999 25.5416 13.8958 25.7916C13.7916 26.0416 13.6458 26.2708 13.4583 26.4791C13.2499 26.6666 13.0208 26.8125 12.7708 26.9166C12.5208 27.0208 12.2499 27.0833 11.9791 27.0833Z" fill="#292D32"/>
<path d="M19.2708 27.0833C19 27.0833 18.7292 27.0208 18.4792 26.9166C18.2292 26.8124 18 26.6666 17.7917 26.4791C17.3958 26.0833 17.1875 25.5624 17.1875 24.9999C17.1875 24.7291 17.25 24.4583 17.3542 24.2083C17.4583 23.9374 17.6042 23.7291 17.7917 23.5208C18.5625 22.7499 19.9583 22.7499 20.75 23.5208C21.125 23.9166 21.3542 24.4583 21.3542 24.9999C21.3542 25.2708 21.2917 25.5416 21.1875 25.7916C21.0833 26.0416 20.9375 26.2708 20.75 26.4791C20.5417 26.6666 20.3125 26.8124 20.0625 26.9166C19.8125 27.0208 19.5417 27.0833 19.2708 27.0833Z" fill="#292D32"/>
</svg>
