<?xml version="1.0" standalone="no"?>
<!DOCTYPE svg PUBLIC "-//W3C//DTD SVG 20010904//EN"
 "http://www.w3.org/TR/2001/REC-SVG-20010904/DTD/svg10.dtd">
<svg version="1.0" xmlns="http://www.w3.org/2000/svg"
 width="512.000000pt" height="512.000000pt" viewBox="0 0 512.000000 512.000000"
 preserveAspectRatio="xMidYMid meet">

<g transform="translate(0.000000,512.000000) scale(0.100000,-0.100000)"
fill="#bbb" stroke="none">
<path d="M1273 4287 c-342 -341 -393 -396 -393 -422 0 -26 100 -130 828 -858
731 -731 831 -827 857 -827 27 0 80 50 423 390 433 431 419 412 362 482 l-31
37 38 6 c175 30 291 85 403 195 l52 51 87 -3 86 -3 5 -54 c4 -36 12 -58 25
-67 15 -11 78 -14 317 -14 285 0 299 1 318 20 20 20 20 33 20 638 0 608 0 619
-20 640 -20 22 -25 22 -318 22 -239 0 -302 -3 -317 -14 -13 -9 -21 -31 -25
-67 l-5 -54 -94 -3 -95 -3 -420 137 c-458 149 -540 169 -656 159 -102 -8 -142
-21 -464 -142 l-279 -104 -127 125 c-104 103 -132 126 -156 126 -25 0 -85 -56
-421 -393z m1742 197 c77 -24 262 -83 410 -132 l270 -88 3 -416 2 -416 -60
-55 c-146 -136 -349 -178 -530 -111 -201 76 -710 291 -739 312 -83 62 -95 203
-22 286 29 33 93 59 146 58 40 0 111 -25 362 -126 172 -69 319 -126 328 -126
24 0 65 46 65 73 0 13 -10 33 -22 44 -13 12 -160 76 -328 144 -267 106 -314
122 -377 127 -44 3 -91 0 -119 -8 l-46 -13 -140 140 -139 140 68 25 c37 14
159 60 270 102 112 42 229 81 260 85 94 15 187 2 338 -45z m-1250 -48 c36 -35
65 -66 65 -69 0 -10 -101 -37 -139 -37 -39 0 -97 14 -121 30 -12 8 -3 21 50
75 35 36 68 65 72 65 4 0 37 -29 73 -64z m2765 -576 l0 -520 -200 0 -200 0 0
520 0 520 200 0 200 0 0 -520z m-2930 344 c103 -26 235 -6 310 47 l25 18 156
-156 156 -155 -33 -56 c-38 -62 -54 -110 -54 -159 0 -32 -2 -33 -40 -33 -98 0
-211 -75 -253 -168 -32 -72 -30 -171 6 -244 85 -174 311 -213 451 -80 38 37
86 122 86 155 0 9 2 17 4 17 7 0 508 -208 513 -214 3 -2 -3 -26 -13 -53 -14
-35 -19 -74 -19 -144 0 -89 2 -100 36 -167 l35 -71 -78 -78 -77 -77 -38 21
c-88 49 -218 67 -308 42 -22 -6 -64 -23 -93 -37 l-53 -26 -515 515 -515 515
30 59 c60 117 60 252 2 370 l-30 60 80 81 81 81 42 -23 c23 -13 71 -31 106
-40z m2390 -344 l0 -380 -75 0 -75 0 0 380 0 380 75 0 75 0 0 -380z m-2781 91
c17 -50 13 -150 -7 -194 l-17 -38 -70 71 -69 70 69 70 c38 38 72 66 76 62 3
-4 11 -22 18 -41z m981 -399 c104 -52 107 -208 6 -256 -131 -62 -260 67 -194
193 39 74 115 100 188 63z m953 -634 l-72 -72 -17 39 c-24 56 -24 150 0 203
l20 43 70 -70 71 -71 -72 -72z m-480 -416 l38 -17 -71 -70 -70 -69 -65 64
c-36 35 -65 67 -65 71 0 4 17 14 38 22 50 21 147 21 195 -1z"/>
<path d="M1735 2059 c-136 -21 -263 -82 -364 -175 l-69 -64 -91 0 -91 0 0 50
c0 37 -5 55 -20 70 -19 19 -33 20 -315 20 l-296 0 -24 -25 -25 -24 0 -614 c0
-603 0 -614 20 -635 20 -22 25 -22 320 -22 295 0 300 0 320 22 14 15 20 35 20
65 l0 43 106 0 107 0 417 -135 c229 -74 444 -140 476 -146 82 -16 234 -5 319
21 101 32 1205 455 1262 484 63 31 137 112 171 184 24 51 27 69 27 163 0 101
-1 108 -37 181 -45 90 -95 138 -187 181 -58 27 -76 31 -151 31 -80 0 -101 -6
-390 -101 l-305 -100 -22 45 c-24 49 -81 113 -128 142 -49 30 -756 317 -810
328 -77 17 -174 21 -240 11z m238 -153 c24 -7 200 -78 393 -157 292 -120 355
-150 386 -181 115 -115 39 -312 -124 -326 -49 -4 -75 5 -365 122 -171 69 -325
126 -342 126 -54 0 -83 -77 -42 -114 11 -10 158 -74 328 -143 286 -117 314
-126 388 -130 110 -7 179 19 256 96 52 52 66 78 103 186 6 18 619 215 668 215
140 0 258 -116 258 -255 0 -90 -58 -188 -132 -226 -75 -38 -1192 -461 -1273
-481 -129 -33 -196 -24 -475 67 -129 42 -314 102 -410 134 l-175 57 -3 415 -2
416 52 52 c127 125 341 178 511 127z m-993 -606 l0 -520 -200 0 -200 0 0 513
c0 283 3 517 7 520 3 4 93 7 200 7 l193 0 0 -520z m290 -5 l0 -386 -72 3 -73
3 -3 383 -2 382 75 0 75 0 0 -385z"/>
</g>
</svg>
