<svg width="50" height="50" viewBox="0 0 50 50" fill="none" xmlns="http://www.w3.org/2000/svg">
<path opacity="0.4" d="M25.0001 4.16675C19.5417 4.16675 15.1042 8.60425 15.1042 14.0626C15.1042 19.4167 19.2917 23.7501 24.7501 23.9376C24.9167 23.9167 25.0834 23.9167 25.2084 23.9376C25.2501 23.9376 25.2709 23.9376 25.3126 23.9376C25.3334 23.9376 25.3334 23.9376 25.3542 23.9376C30.6876 23.7501 34.8751 19.4167 34.8959 14.0626C34.8959 8.60425 30.4584 4.16675 25.0001 4.16675Z" fill="black"/>
<path d="M35.5833 29.4792C29.7708 25.6042 20.2916 25.6042 14.4374 29.4792C11.7916 31.2501 10.3333 33.6459 10.3333 36.2084C10.3333 38.7709 11.7916 41.1459 14.4166 42.8959C17.3333 44.8542 21.1666 45.8334 24.9999 45.8334C28.8333 45.8334 32.6666 44.8542 35.5833 42.8959C38.2083 41.1251 39.6666 38.7501 39.6666 36.1667C39.6458 33.6042 38.2083 31.2292 35.5833 29.4792Z" fill="black"/>
</svg>
