<?xml version="1.0" standalone="no"?>
<!DOCTYPE svg PUBLIC "-//W3C//DTD SVG 20010904//EN"
 "http://www.w3.org/TR/2001/REC-SVG-20010904/DTD/svg10.dtd">
<svg version="1.0" xmlns="http://www.w3.org/2000/svg"
 width="512.000000pt" height="512.000000pt" viewBox="0 0 512.000000 512.000000"
 preserveAspectRatio="xMidYMid meet">

<g transform="translate(0.000000,512.000000) scale(0.100000,-0.100000)"
fill="#bbb" stroke="none">
<path d="M2769 4798 c-270 -19 -511 -136 -709 -344 -200 -211 -300 -463 -300
-759 0 -311 103 -559 324 -781 222 -221 470 -324 781 -324 302 0 555 101 768
309 224 217 338 485 337 794 0 67 -4 147 -9 177 -35 210 -122 395 -261 554
-238 271 -561 401 -931 374z m146 -282 c43 -18 62 -48 71 -113 6 -50 7 -52 53
-69 112 -42 200 -116 245 -206 57 -114 12 -208 -98 -208 -44 0 -78 29 -114 95
-21 38 -39 55 -81 77 -140 73 -341 2 -341 -121 0 -91 71 -138 234 -157 133
-15 205 -40 284 -98 106 -79 157 -183 151 -314 -8 -155 -111 -283 -280 -346
-45 -17 -47 -19 -53 -69 -9 -65 -37 -103 -85 -118 -83 -25 -151 30 -151 122
l0 47 -52 17 c-71 22 -136 65 -193 126 -84 90 -99 167 -41 225 27 27 42 34 75
34 54 0 87 -17 113 -58 49 -79 111 -112 213 -112 162 0 260 111 195 218 -30
49 -103 78 -227 91 -56 6 -127 20 -157 32 -112 41 -217 146 -251 250 -25 75
-18 188 17 259 48 97 158 189 266 221 42 12 42 12 42 61 0 57 21 95 65 114 39
17 58 17 100 0z"/>
<path d="M1786 2284 c-89 -21 -201 -78 -516 -261 l-289 -167 28 -51 c16 -27
133 -234 261 -460 128 -225 233 -412 235 -414 2 -1 13 4 25 12 20 14 30 13
108 -8 1055 -285 1149 -308 1235 -313 103 -5 189 9 272 47 33 15 357 205 720
421 363 216 730 435 815 486 85 50 165 103 177 116 60 64 85 201 54 292 -21
60 -93 132 -153 152 -77 25 -209 15 -315 -24 -45 -16 -307 -153 -583 -302
-276 -150 -528 -283 -559 -296 -84 -34 -187 -46 -284 -34 -44 5 -184 37 -311
70 -456 117 -468 122 -481 182 -13 56 35 118 91 118 9 0 195 -48 413 -106 218
-59 403 -107 411 -108 19 -1 39 56 39 114 1 79 -56 171 -134 220 -16 10 -84
30 -150 45 -154 35 -349 94 -604 185 -112 40 -226 79 -255 86 -65 17 -174 17
-250 -2z"/>
<path d="M397 1861 c-75 -43 -149 -88 -162 -101 -37 -34 -50 -86 -33 -132 7
-20 171 -314 363 -654 271 -477 357 -621 380 -636 60 -37 105 -26 265 66 158
90 190 122 190 186 0 38 -6 49 -507 935 -228 401 -238 415 -317 415 -33 0 -69
-16 -179 -79z"/>
</g>
</svg>
