<svg width="147" height="156" viewBox="0 0 147 156" fill="none" xmlns="http://www.w3.org/2000/svg">
<path d="M0.264404 42.8215V112.872C0.264404 115.714 1.90545 118.249 4.44906 119.708L69.1882 154.733C71.8138 156.116 75.0138 156.116 77.5575 154.733L142.297 119.708C144.922 118.326 146.481 115.714 146.481 112.872V42.8215C146.481 39.9795 144.84 37.4448 142.297 35.9854L77.6395 1.03693C75.0139 -0.345644 71.8138 -0.345644 69.2702 1.03693L4.44906 35.9854C1.90545 37.4448 0.264404 40.0563 0.264404 42.8215Z" fill="black"/>
<path d="M112.841 50.7343V46.7402H104.308V38.752H100.041V47.8155L91.3434 54.882C85.928 49.8126 78.5433 46.7402 70.3381 46.7402C53.9277 46.7402 40.6353 59.2602 40.6353 74.5453C40.6353 82.0727 43.9173 88.9856 49.1687 93.9782V106.345H53.4354V97.3578C58.2765 100.507 64.1021 102.35 70.4202 102.35C76.7382 102.35 82.5639 100.507 87.4049 97.3578V106.345H91.6716V93.9782C96.923 88.9856 100.205 82.0727 100.205 74.5453C100.205 68.3237 97.9897 62.4862 94.2973 57.8776L103.159 50.6575L112.841 50.7343ZM95.8563 74.5453C95.8563 87.6798 84.4511 98.4332 70.3381 98.4332C56.2251 98.4332 44.8199 87.7566 44.8199 74.5453C44.8199 61.334 56.2251 50.6575 70.3381 50.6575C77.2305 50.6575 83.5485 53.269 88.1434 57.4167L84.9434 60.0283C81.169 56.6486 75.9997 54.5748 70.4202 54.5748C58.6867 54.5748 49.1687 63.4847 49.1687 74.4685C49.1687 85.4523 58.6047 94.4391 70.3381 94.4391C82.0716 94.4391 91.5896 85.5291 91.5896 74.5453C91.5896 70.3208 90.1127 66.3267 87.7331 63.1007L90.9332 60.4891C93.9691 64.4832 95.8563 69.3223 95.8563 74.5453ZM87.3229 74.5453C87.3229 83.3016 79.692 90.445 70.3381 90.445C60.9842 90.445 53.3533 83.3016 53.3533 74.5453C53.3533 65.789 60.9842 58.6457 70.3381 58.6457C74.6869 58.6457 78.6254 60.1819 81.6613 62.7166L78.3792 65.3281C76.1638 63.6383 73.374 62.6398 70.2561 62.6398C63.1996 62.6398 57.538 68.0165 57.538 74.5453C57.538 81.0742 63.2816 86.4508 70.2561 86.4508C77.2305 86.4508 82.9741 81.0742 82.9741 74.5453C82.9741 72.241 82.3177 70.1672 81.0869 68.3237L84.369 65.7122C86.2562 68.2469 87.3229 71.3193 87.3229 74.5453ZM78.8715 74.5453C78.8715 78.9235 75.0971 82.5335 70.3381 82.5335C65.6611 82.5335 61.8047 79.0003 61.8047 74.5453C61.8047 70.1672 65.5791 66.5571 70.3381 66.5571C72.1433 66.5571 73.7843 67.0948 75.1792 67.9397L70.3381 71.857L73.1279 74.8526L77.9689 70.9353C78.5433 72.0874 78.8715 73.3164 78.8715 74.5453Z" fill="white"/>
</svg>
