<?xml version="1.0" standalone="no"?>
<!DOCTYPE svg PUBLIC "-//W3C//DTD SVG 20010904//EN"
 "http://www.w3.org/TR/2001/REC-SVG-20010904/DTD/svg10.dtd">
<svg version="1.0" xmlns="http://www.w3.org/2000/svg"
 width="512.000000pt" height="512.000000pt" viewBox="0 0 512.000000 512.000000"
 preserveAspectRatio="xMidYMid meet">

<g transform="translate(0.000000,512.000000) scale(0.100000,-0.100000)"
fill="#bbb" stroke="none">
<path d="M760 4952 c-32 -14 -58 -38 -79 -72 -21 -34 -21 -43 -21 -516 l0
-481 23 -33 c12 -18 35 -43 50 -54 28 -20 40 -21 443 -24 l414 -3 0 211 0 210
-62 0 c-70 0 -129 23 -165 61 -74 82 -49 220 50 268 43 21 44 21 1361 21 1291
0 1318 0 1355 -20 107 -54 129 -191 45 -276 -39 -38 -86 -54 -166 -54 l-58 0
0 -210 0 -210 402 0 c380 0 404 1 442 20 23 11 52 36 66 57 l25 37 0 480 c0
467 -1 482 -21 516 -11 19 -35 45 -54 57 l-33 23 -2001 -1 c-1101 0 -2008 -3
-2016 -7z"/>
<path d="M1747 4383 c-9 -8 -9 -2323 0 -2323 3 0 70 62 147 138 89 87 158 146
189 161 l47 23 0 737 0 738 49 6 c129 15 243 128 258 257 l6 50 327 0 328 0 7
-47 c19 -131 135 -246 261 -261 l44 -5 0 -977 0 -977 -45 -6 c-129 -18 -239
-130 -261 -265 l-7 -42 -328 0 -329 0 0 28 c0 38 -28 118 -46 133 -13 10 -26
2 -80 -52 -95 -93 -117 -133 -178 -317 -31 -92 -56 -170 -56 -175 0 -11 1549
-9 1591 3 48 14 104 71 118 123 9 31 11 439 9 1547 l-3 1505 -1021 3 c-561 1
-1024 -1 -1027 -5z"/>
<path d="M2711 3390 c-68 -14 -125 -47 -174 -98 -150 -161 -98 -415 103 -511
79 -37 191 -36 272 2 62 30 115 83 150 149 19 36 23 58 23 138 0 80 -4 103
-24 144 -64 129 -212 204 -350 176z"/>
<path d="M1359 2413 l-227 -228 -196 -414 c-108 -227 -196 -416 -196 -420 0
-3 154 -160 343 -349 l343 -343 215 218 c144 146 224 235 242 270 15 29 59
145 97 258 38 113 82 227 97 253 15 26 87 106 160 178 170 167 192 216 140
315 -42 78 -130 109 -215 74 -24 -11 -129 -108 -304 -283 l-268 -266 -2 482
-3 482 -226 -227z"/>
<path d="M445 1330 c-30 -12 -192 -181 -203 -211 -6 -14 -8 -37 -5 -51 3 -17
152 -173 447 -467 l442 -441 43 0 c42 0 48 4 142 99 98 97 99 99 99 147 l0 48
-427 429 c-243 243 -442 435 -460 443 -36 16 -49 16 -78 4z"/>
</g>
</svg>
