<?xml version="1.0" standalone="no"?>
<!DOCTYPE svg PUBLIC "-//W3C//DTD SVG 20010904//EN"
 "http://www.w3.org/TR/2001/REC-SVG-20010904/DTD/svg10.dtd">
<svg version="1.0" xmlns="http://www.w3.org/2000/svg"
 width="512.000000pt" height="512.000000pt" viewBox="0 0 512.000000 512.000000"
 preserveAspectRatio="xMidYMid meet">

<g transform="translate(0.000000,512.000000) scale(0.100000,-0.100000)"
fill="#000000" stroke="none">
<path d="M2285 4675 c-811 -106 -1495 -672 -1749 -1446 -75 -229 -106 -422
-106 -669 0 -247 31 -440 106 -669 105 -319 274 -592 518 -837 183 -182 348
-300 571 -410 432 -211 929 -269 1404 -165 87 19 298 87 381 123 33 14 54 11
450 -64 470 -89 527 -95 612 -56 110 51 179 150 186 268 3 53 -12 145 -82 482
l-86 417 35 81 c109 254 165 534 165 823 0 176 -13 301 -46 457 -191 891 -943
1571 -1846 1669 -128 14 -388 12 -513 -4z m-719 -1696 c88 -16 162 -56 227
-120 168 -168 168 -430 0 -598 -166 -165 -420 -169 -588 -10 -92 87 -135 185
-135 309 0 123 43 222 133 308 64 60 119 89 201 107 78 17 90 17 162 4z m1140
-20 c189 -71 306 -266 275 -460 -38 -233 -257 -396 -482 -360 -233 38 -396
257 -360 482 36 224 235 382 456 362 33 -3 83 -14 111 -24z m1005 17 c87 -19
141 -47 206 -108 90 -86 133 -185 133 -308 0 -124 -43 -222 -135 -309 -129
-122 -312 -150 -474 -74 -73 35 -165 127 -197 198 -78 170 -46 355 83 484 64
63 129 99 213 117 73 16 93 16 171 0z"/>
</g>
</svg>
