<?xml version="1.0" standalone="no"?>
<!DOCTYPE svg PUBLIC "-//W3C//DTD SVG 20010904//EN"
 "http://www.w3.org/TR/2001/REC-SVG-20010904/DTD/svg10.dtd">
<svg version="1.0" xmlns="http://www.w3.org/2000/svg"
 width="512.000000pt" height="512.000000pt" viewBox="0 0 512.000000 512.000000"
 preserveAspectRatio="xMidYMid meet">

<g transform="translate(0.000000,512.000000) scale(0.100000,-0.100000)"
fill="#000000" stroke="none">
<path d="M2370 5113 c-664 -63 -1202 -317 -1651 -780 -195 -201 -340 -410
-465 -668 -158 -326 -237 -650 -251 -1020 -15 -426 73 -832 263 -1214 133
-269 271 -459 488 -677 221 -220 412 -357 681 -489 188 -92 309 -137 500 -185
196 -49 343 -70 545 -77 580 -20 1143 158 1615 511 138 103 379 339 477 466
496 644 663 1434 468 2210 -59 235 -182 525 -306 720 -211 333 -537 653 -856
843 -413 246 -871 371 -1338 365 -74 0 -151 -3 -170 -5z m406 -244 c677 -66
1280 -416 1681 -977 312 -437 465 -1010 412 -1548 -51 -529 -273 -1010 -642
-1391 -173 -179 -331 -301 -537 -417 -696 -390 -1537 -394 -2240 -10 -207 113
-343 215 -526 398 -229 230 -378 447 -497 728 -249 582 -247 1241 4 1825 121
283 287 521 518 745 329 320 718 525 1161 612 229 45 448 57 666 35z"/>
<path d="M3575 4109 c-11 -6 -145 -136 -297 -287 l-278 -277 -57 57 c-32 30
-68 61 -80 67 -55 28 -139 -1 -161 -55 -6 -16 -68 -256 -137 -534 -90 -359
-125 -515 -121 -540 7 -44 52 -89 96 -96 25 -4 181 31 540 121 278 69 518 131
534 137 54 22 83 106 55 161 -6 12 -37 48 -67 80 l-57 57 277 278 c152 152
281 287 287 299 15 30 14 69 -3 101 -18 32 -402 415 -433 431 -27 14 -72 14
-98 0z m-29 -769 c-207 -208 -285 -293 -289 -314 -7 -40 9 -88 38 -116 14 -13
25 -27 25 -31 0 -9 -579 -153 -587 -146 -7 8 137 587 146 587 4 0 18 -11 31
-25 28 -29 76 -45 116 -38 21 4 105 82 314 289 l285 284 102 -102 103 -102
-284 -286z"/>
<path d="M1198 3836 c-92 -25 -169 -108 -189 -204 -15 -73 -6 -377 16 -522
107 -697 488 -1302 1066 -1689 324 -218 640 -337 1064 -402 44 -7 172 -13 285
-13 196 -1 207 0 252 22 26 13 64 42 84 64 70 78 69 68 72 520 3 366 1 411
-14 443 -9 20 -29 42 -43 50 -15 7 -189 57 -387 110 -392 105 -438 112 -520
76 -31 -14 -92 -66 -190 -163 l-144 -142 -33 19 c-199 116 -399 316 -512 512
l-19 33 142 144 c97 98 149 159 163 190 36 82 29 128 -76 520 -53 198 -103
372 -110 387 -30 57 -46 59 -472 58 -279 0 -401 -4 -435 -13z m773 -451 c33
-121 70 -260 84 -310 l24 -89 -143 -146 c-79 -80 -151 -160 -160 -178 -24 -47
-31 -122 -17 -179 21 -84 168 -291 300 -424 133 -132 340 -279 424 -300 57
-14 132 -7 179 17 18 9 98 81 178 160 l145 143 110 -30 c61 -16 200 -53 310
-83 l200 -53 3 -323 c2 -230 -1 -327 -9 -336 -8 -10 -41 -14 -123 -14 -402 0
-803 109 -1148 313 -300 177 -586 461 -768 761 -166 276 -278 614 -309 940
-15 151 -14 329 1 344 9 9 93 12 336 10 l325 -3 58 -220z"/>
</g>
</svg>
