<?xml version="1.0" standalone="no"?>
<!DOCTYPE svg PUBLIC "-//W3C//DTD SVG 20010904//EN"
 "http://www.w3.org/TR/2001/REC-SVG-20010904/DTD/svg10.dtd">
<svg version="1.0" xmlns="http://www.w3.org/2000/svg"
 width="512.000000pt" height="512.000000pt" viewBox="0 0 512.000000 512.000000"
 preserveAspectRatio="xMidYMid meet">

<g transform="translate(0.000000,512.000000) scale(0.100000,-0.100000)"
fill="#000000" stroke="none">
<path d="M2389 4680 c-630 -107 -1030 -737 -853 -1346 105 -364 391 -642 762
-741 86 -23 116 -26 262 -26 146 0 176 3 262 26 372 99 657 376 762 741 174
601 -218 1231 -834 1342 -80 14 -286 17 -361 4z"/>
<path d="M1792 2339 c-387 -45 -725 -264 -872 -564 -50 -102 -72 -196 -71
-310 1 -190 69 -342 230 -509 260 -270 609 -434 1070 -503 146 -22 645 -25
786 -5 350 50 633 149 865 304 110 73 273 226 336 314 53 74 98 168 119 249
20 77 20 224 1 309 -85 366 -479 666 -938 716 -116 12 -1417 12 -1526 -1z"/>
</g>
</svg>
